<svg width="512" height="512" viewBox="0 0 512 512" xmlns="http://www.w3.org/2000/svg">
  <path d="M 182.6,53.5 C 177.7,55.2 173.3,59.4 170.9,64.5 C 169.1,68.3 169.0,73.3 169.0,169.6 L 169.0,270.6 L 171.6,275.8 C 174.3,281.2 178.4,284.5 183.7,285.6 C 186.3,286.1 186.8,285.8 187.3,283.8 C 188.3,280.3 188.2,280.1 184.7,278.6 C 182.8,277.9 180.4,276.0 179.2,274.5 L 177.0,271.7 L 177.0,170.8 C 177.0,60.0 176.7,65.4 182.9,61.7 C 185.6,60.1 191.7,60.0 256.7,60.0 C 334.5,60.0 330.2,59.7 333.5,66.0 C 334.8,68.5 335.0,82.7 335.0,170.4 C 335.1,283.9 335.6,275.3 327.8,278.5 C 324.4,279.8 323.9,280.4 324.4,282.3 C 324.7,283.5 325.0,284.8 325.0,285.2 C 325.0,287.0 329.9,285.8 334.2,283.1 C 337.2,281.2 339.4,278.7 340.9,275.8 L 343.0,271.3 L 342.8,168.2 L 342.5,65.2 L 339.5,60.9 C 337.9,58.6 334.5,55.6 332.1,54.3 L 327.7,52.0 L 257.1,52.0 C 199.8,52.1 185.8,52.3 182.6,53.5 M 192.0,68.7 C 190.1,69.7 187.5,72.0 186.3,73.9 L 184.0,77.3 L 184.0,168.8 C 184.0,259.9 184.0,260.3 186.1,263.7 C 187.2,265.5 189.5,267.7 191.1,268.6 C 193.9,270.0 194.2,270.0 196.0,267.8 C 198.5,264.8 198.5,264.7 195.0,262.7 C 193.4,261.7 191.8,259.9 191.5,258.7 C 191.2,257.5 191.1,216.6 191.2,167.9 C 191.5,82.2 191.6,79.1 193.4,77.1 C 195.3,75.0 195.3,75.0 256.9,75.2 L 318.4,75.5 L 319.7,78.0 C 320.7,80.0 321.0,99.8 321.0,169.8 L 321.0,259.1 L 318.5,261.5 C 317.2,262.9 315.6,264.0 315.0,264.0 C 314.3,264.0 314.6,265.2 315.7,267.0 C 316.6,268.6 318.0,270.0 318.6,270.0 C 320.6,270.0 325.6,265.3 326.9,262.3 C 327.7,260.2 328.0,234.9 327.8,167.3 L 327.5,75.0 L 323.7,71.3 L 320.0,67.5 L 257.7,67.2 C 200.0,67.0 195.2,67.1 192.0,68.7 M 253.6,85.2 C 251.3,85.9 248.0,88.0 245.5,90.4 C 235.9,100.0 238.2,115.3 250.2,121.6 C 256.6,124.9 268.7,122.2 272.3,116.6 C 274.6,113.2 274.4,112.9 271.4,114.0 C 267.4,115.6 263.1,115.2 259.0,112.9 C 254.3,110.2 252.0,106.3 252.0,100.7 C 252.0,94.9 255.2,90.1 260.9,87.4 L 265.3,85.3 L 262.0,84.7 C 258.3,83.9 258.8,83.9 253.6,85.2 M 208.0,91.0 C 207.3,92.6 205.5,94.5 203.9,95.2 C 200.3,96.8 200.3,97.4 203.5,98.8 C 204.9,99.5 206.9,101.3 207.8,103.0 C 209.9,106.6 210.6,106.7 211.4,103.5 C 211.8,102.0 213.5,100.3 215.6,99.2 L 219.2,97.3 L 215.6,95.2 C 213.6,94.0 211.8,92.0 211.4,90.6 C 210.6,87.2 209.5,87.3 208.0,91.0 M 300.6,93.6 C 300.2,95.0 298.4,97.0 296.4,98.2 L 292.8,100.3 L 296.0,101.6 C 297.9,102.5 299.6,104.1 300.3,106.0 C 301.7,109.8 302.3,109.8 303.7,105.9 C 304.5,104.0 306.0,102.5 307.9,101.7 C 309.6,101.1 311.0,100.3 311.0,100.0 C 311.0,99.7 309.6,98.9 307.9,98.3 C 306.0,97.5 304.5,96.0 303.7,94.1 C 302.3,90.3 301.4,90.2 300.6,93.6 M 220.0,130.5 C 218.7,132.1 218.7,132.1 225.3,141.2 C 230.1,147.9 234.0,150.2 234.0,146.2 C 234.0,144.4 223.3,129.0 222.0,129.0 C 221.6,129.0 220.7,129.7 220.0,130.5 M 283.8,136.3 C 277.3,145.4 276.8,146.5 278.5,148.0 C 279.3,148.6 280.4,148.9 281.0,148.5 C 282.6,147.5 292.0,133.8 292.0,132.5 C 292.0,131.5 290.0,130.0 288.6,130.0 C 288.5,130.0 286.3,132.9 283.8,136.3 M 253.6,135.6 C 251.6,140.9 254.3,146.5 257.5,143.4 C 259.0,141.9 259.1,141.0 258.0,134.2 C 257.9,133.2 254.1,134.3 253.6,135.6 M 205.3,149.6 C 204.6,151.5 212.5,158.9 215.2,159.0 C 219.4,159.1 218.4,155.7 212.8,151.2 C 208.4,147.7 206.2,147.2 205.3,149.6 M 298.4,152.3 C 293.7,156.6 293.1,159.0 296.8,159.0 C 299.6,158.9 307.4,151.6 306.7,149.7 C 305.7,147.0 303.5,147.7 298.4,152.3 M 247.0,150.1 C 239.7,151.4 228.9,156.4 221.0,162.4 C 213.9,167.7 203.0,177.9 203.0,179.3 C 203.0,181.1 212.5,190.1 219.5,195.0 C 232.7,204.1 242.9,207.4 257.0,207.3 C 267.5,207.2 279.0,203.7 287.2,198.2 C 294.9,193.1 309.0,181.0 309.0,179.5 C 309.0,177.9 297.9,167.3 290.2,161.7 C 281.9,155.6 275.1,152.5 265.8,150.6 C 257.3,148.8 255.2,148.8 247.0,150.1 M 266.1,161.0 C 275.0,165.6 278.7,178.7 273.8,188.0 C 272.4,190.5 269.4,193.8 267.1,195.5 C 263.4,198.1 262.0,198.5 256.1,198.5 C 250.4,198.5 248.7,198.1 245.2,195.7 C 234.7,188.8 233.3,173.6 242.5,164.5 C 249.1,157.9 257.5,156.6 266.1,161.0 M 234.5,164.0 C 228.0,173.7 228.7,187.5 236.3,195.7 C 239.0,198.7 238.1,198.6 231.2,195.1 C 223.0,190.9 211.0,181.3 211.0,179.0 C 211.0,177.1 235.1,159.0 237.6,159.0 C 237.8,159.0 236.3,161.3 234.5,164.0 M 281.5,162.9 C 287.0,166.1 301.0,177.7 301.0,179.0 C 301.0,181.3 278.0,197.9 274.8,198.0 C 274.3,198.0 275.6,196.0 277.4,193.5 C 284.5,184.3 284.1,170.4 276.7,162.2 C 273.9,159.2 275.5,159.4 281.5,162.9 M 248.1,170.0 C 242.6,175.6 243.0,183.3 249.3,188.6 C 253.0,191.8 257.3,191.6 257.8,188.2 C 258.1,186.4 257.5,185.7 255.0,184.9 C 248.9,182.7 249.2,174.5 255.4,172.9 C 261.2,171.3 260.5,167.0 254.5,167.0 C 252.1,167.0 250.3,167.9 248.1,170.0 M 210.1,203.6 C 204.9,208.3 203.8,210.6 206.5,211.6 C 208.1,212.3 218.0,204.4 218.0,202.5 C 218.0,201.8 217.4,200.7 216.6,200.1 C 215.5,199.2 214.2,199.9 210.1,203.6 M 294.3,201.6 C 293.5,203.7 301.8,212.2 304.4,211.8 C 307.9,211.3 307.3,208.9 302.6,204.4 C 297.7,199.8 295.3,199.0 294.3,201.6 M 226.1,216.5 C 221.0,223.9 220.1,227.2 223.0,227.8 C 225.0,228.1 235.5,212.7 234.7,210.6 C 233.5,207.5 231.2,209.1 226.1,216.5 M 277.4,210.5 C 277.0,211.4 278.8,215.0 281.8,219.2 C 287.4,227.4 289.3,229.1 291.1,227.3 C 292.1,226.3 291.1,224.2 286.7,217.5 C 281.2,209.3 278.6,207.3 277.4,210.5 M 254.2,215.2 C 252.3,217.1 252.6,229.5 254.6,231.1 C 257.2,233.2 259.0,229.7 259.0,222.5 C 259.0,217.1 257.9,214.0 256.0,214.0 C 255.7,214.0 254.9,214.5 254.2,215.2 M 207.6,236.6 C 207.2,238.0 205.6,239.9 204.0,240.8 C 200.4,242.9 200.3,243.3 203.5,245.0 C 204.9,245.7 206.5,247.6 207.2,249.2 C 208.8,252.6 209.4,252.7 210.8,249.5 C 211.4,248.1 213.3,246.2 215.0,245.1 L 218.1,243.3 L 214.6,241.2 C 212.6,240.0 210.8,238.0 210.4,236.6 C 209.6,233.3 208.4,233.3 207.6,236.6 M 301.0,236.9 C 300.3,238.7 298.4,240.8 296.7,241.6 L 293.8,243.2 L 296.9,245.1 C 298.7,246.2 300.6,248.4 301.2,250.2 L 302.3,253.3 L 304.0,250.1 C 304.9,248.3 306.9,246.1 308.5,245.0 L 311.4,243.1 L 308.6,241.9 C 307.1,241.2 305.1,239.1 304.1,237.2 L 302.3,233.8 L 301.0,236.9 M 229.9,251.4 C 209.7,257.2 194.5,275.3 191.8,296.7 L 190.6,306.0 L 187.2,306.0 C 184.7,306.0 183.2,305.2 181.4,303.1 C 180.0,301.5 177.4,299.6 175.5,299.0 C 170.8,297.4 165.3,300.1 162.6,305.1 C 160.8,308.3 160.8,309.2 161.9,312.9 C 164.0,319.9 171.4,322.9 178.0,319.5 C 179.6,318.7 181.4,317.1 182.0,316.0 C 182.8,314.5 184.1,314.0 186.9,314.0 L 190.7,314.0 L 191.3,322.2 C 191.6,326.8 192.4,332.2 193.0,334.3 C 194.8,340.5 202.0,350.0 208.0,354.1 C 218.2,361.1 219.9,361.4 253.3,361.8 C 272.7,362.0 285.0,361.7 288.5,361.0 C 296.9,359.2 305.3,354.6 310.9,348.4 C 317.3,341.4 320.1,334.2 320.8,322.7 L 321.3,314.0 L 324.5,314.0 C 326.9,314.0 328.7,314.9 331.3,317.5 C 336.0,322.2 341.3,322.4 346.4,318.0 C 350.6,314.3 351.6,310.4 349.6,305.7 C 347.7,301.1 343.7,298.5 338.6,298.6 C 335.4,298.7 334.0,299.4 331.3,302.4 C 328.7,305.2 327.2,306.0 324.6,306.0 L 321.3,306.0 L 320.1,297.4 C 318.5,286.3 314.9,277.2 309.0,269.9 C 302.8,262.2 298.2,258.5 289.0,254.1 L 281.5,250.5 L 258.0,250.3 C 241.1,250.2 233.2,250.5 229.9,251.4 M 287.2,260.7 C 298.6,266.1 306.7,275.2 311.1,287.6 C 314.2,296.1 315.0,322.9 312.5,331.5 C 309.6,341.7 303.9,348.1 293.5,352.7 C 289.9,354.3 286.1,354.5 256.5,354.5 L 223.5,354.5 L 217.9,351.9 C 210.2,348.3 204.6,342.9 201.3,336.2 C 198.8,330.9 198.6,329.4 198.2,315.0 C 197.6,292.3 200.4,282.4 210.5,271.2 C 215.7,265.5 221.7,261.5 229.5,258.8 C 233.8,257.2 237.6,257.0 257.5,257.2 L 280.5,257.5 L 287.2,260.7 M 175.1,306.0 C 178.8,308.0 176.9,314.0 172.5,314.0 C 168.3,314.0 166.6,309.6 169.6,306.6 C 171.4,304.7 172.4,304.6 175.1,306.0 M 342.4,306.6 C 345.8,310.0 343.3,314.4 338.3,313.8 C 336.1,313.6 335.4,312.9 335.2,310.7 C 334.6,305.7 339.0,303.2 342.4,306.6 M 230.0,279.9 C 220.9,281.2 214.8,285.4 210.5,293.2 C 207.9,298.0 207.6,299.4 207.6,308.5 C 207.6,321.1 209.5,327.1 215.7,334.0 C 225.1,344.5 233.4,347.2 256.0,347.2 C 278.4,347.2 287.1,344.4 295.9,334.4 C 302.0,327.5 304.0,321.0 304.0,308.7 C 304.0,296.6 302.5,292.4 296.2,286.8 C 288.7,280.0 287.3,279.7 260.0,279.4 C 246.5,279.3 233.0,279.5 230.0,279.9 M 285.1,287.1 C 289.8,288.7 294.7,293.6 296.6,298.7 C 298.6,303.9 298.1,317.4 295.7,323.1 C 293.3,328.9 287.6,334.5 280.8,337.6 C 274.9,340.3 273.6,340.5 259.3,340.8 C 238.3,341.3 229.4,339.1 221.7,331.3 C 216.1,325.8 214.6,321.7 214.2,311.2 C 213.6,297.3 216.9,290.8 226.0,287.1 C 229.6,285.7 280.8,285.7 285.1,287.1 M 227.5,302.5 C 226.1,303.8 225.0,306.1 225.0,307.5 C 225.0,310.8 229.1,315.0 232.4,315.0 C 236.2,315.0 238.0,314.0 239.6,310.8 C 243.6,303.1 233.7,296.2 227.5,302.5 M 274.0,302.0 C 271.1,304.9 270.5,308.6 272.4,311.5 C 275.5,316.3 282.9,316.0 285.5,311.0 C 289.2,303.8 279.8,296.2 274.0,302.0 M 243.6,324.6 C 242.2,328.1 248.9,332.2 256.0,332.2 C 263.0,332.2 270.0,328.0 268.6,324.5 C 267.9,322.6 265.1,322.6 262.6,324.5 C 261.5,325.3 258.5,326.0 256.0,326.0 C 253.5,326.0 250.5,325.3 249.4,324.5 C 246.9,322.6 244.4,322.6 243.6,324.6 M 226.0,390.9 C 214.7,394.6 208.6,403.0 208.6,415.0 C 208.6,429.4 217.7,439.1 231.3,439.1 C 244.9,439.1 253.7,431.1 254.7,417.7 C 255.9,402.5 247.4,391.5 233.6,390.4 C 230.8,390.2 227.4,390.4 226.0,390.9 M 239.1,402.3 C 247.1,407.7 246.5,424.1 238.1,428.4 C 232.9,431.1 227.5,430.5 223.3,426.6 C 220.0,423.6 219.6,422.7 219.2,417.1 C 218.7,409.9 220.0,406.0 224.2,402.5 C 228.1,399.2 234.4,399.1 239.1,402.3 M 369.2,391.5 C 362.7,393.5 358.1,397.6 355.3,403.8 C 353.1,408.5 352.8,410.2 353.2,416.5 C 354.1,430.2 361.5,438.1 374.0,438.8 C 382.3,439.3 387.1,437.8 392.1,433.3 C 398.7,427.3 401.4,415.2 398.1,405.6 C 396.0,399.5 389.6,393.3 383.7,391.5 C 377.6,389.7 374.9,389.7 369.2,391.5 M 384.7,403.4 C 388.2,406.6 388.4,407.2 388.8,413.6 C 389.1,419.6 388.9,421.0 386.8,424.0 C 385.5,425.9 383.3,428.1 382.0,428.8 C 378.6,430.6 370.5,429.8 367.9,427.4 C 361.0,421.3 361.6,407.2 368.9,402.3 C 374.2,398.7 380.1,399.1 384.7,403.4 M 84.2,395.7 L 84.5,400.5 L 90.7,400.8 L 97.0,401.1 L 97.2,419.8 L 97.5,438.5 L 102.0,438.5 L 106.5,438.5 L 106.8,419.8 L 107.0,401.1 L 113.8,400.8 L 120.5,400.5 L 120.5,396.0 L 120.5,391.5 L 102.2,391.2 L 83.9,391.0 L 84.2,395.7 M 127.2,414.1 C 122.3,427.9 119.3,437.7 119.8,438.2 C 120.3,438.7 122.7,439.0 125.0,438.8 C 129.1,438.5 129.4,438.3 130.8,434.2 L 132.2,430.0 L 140.9,430.0 L 149.6,430.0 L 151.0,434.2 C 152.4,438.3 152.7,438.5 156.9,438.8 C 159.3,439.0 161.6,438.8 162.0,438.3 C 162.4,437.9 159.1,427.1 154.5,414.5 L 146.2,391.5 L 140.8,391.2 L 135.4,390.9 L 127.2,414.1 M 144.3,413.2 L 146.9,421.0 L 140.8,421.0 C 136.4,421.0 134.9,420.7 135.3,419.7 C 135.5,419.1 136.8,415.2 138.1,411.2 C 139.3,407.3 140.7,404.3 141.1,404.7 C 141.4,405.2 142.9,409.0 144.3,413.2 M 168.5,392.2 C 168.2,392.9 168.1,403.7 168.2,416.0 L 168.5,438.5 L 173.0,438.5 L 177.5,438.5 L 177.8,430.2 L 178.1,422.0 L 181.4,422.0 C 184.4,422.0 184.9,422.5 189.4,430.5 L 194.2,439.0 L 199.0,439.0 C 201.7,439.0 204.1,438.7 204.4,438.2 C 204.6,437.8 202.6,433.7 199.8,429.0 L 194.8,420.6 L 197.2,418.7 C 201.2,415.4 203.0,411.8 203.0,406.7 C 203.0,400.9 201.1,396.9 196.8,393.8 C 193.9,391.8 192.2,391.5 181.3,391.1 C 171.5,390.9 168.9,391.1 168.5,392.2 M 190.8,401.6 C 193.6,403.5 193.7,408.3 191.0,411.0 C 189.5,412.5 187.7,413.0 183.5,413.0 L 178.0,413.0 L 178.0,406.5 L 178.0,400.0 L 183.3,400.0 C 186.4,400.0 189.4,400.6 190.8,401.6 M 257.2,395.7 L 257.5,400.5 L 263.7,400.8 L 270.0,401.1 L 270.2,419.8 L 270.5,438.5 L 275.0,438.5 L 279.5,438.5 L 279.8,419.8 L 280.0,401.1 L 286.3,400.8 L 292.5,400.5 L 292.5,396.0 L 292.5,391.5 L 274.7,391.2 L 256.9,391.0 L 257.2,395.7 M 313.2,414.6 L 313.5,438.5 L 325.5,438.5 C 339.0,438.4 342.6,437.2 346.1,431.7 C 349.1,426.9 348.3,419.5 344.2,415.9 L 341.2,413.2 L 343.7,410.8 C 346.6,407.8 347.1,401.3 344.6,397.5 C 341.3,392.4 338.5,391.5 325.3,391.1 L 313.0,390.8 L 313.2,414.6 M 334.1,401.0 C 336.3,402.2 336.7,406.9 334.8,408.8 C 334.1,409.5 331.2,410.0 328.3,410.0 L 323.0,410.0 L 323.0,405.0 L 323.0,400.0 L 327.6,400.0 C 330.1,400.0 333.0,400.5 334.1,401.0 M 337.0,420.9 C 339.8,426.3 336.3,430.0 328.5,430.0 L 323.0,430.0 L 323.0,424.5 L 323.0,419.0 L 329.5,419.0 C 334.8,419.0 336.1,419.3 337.0,420.9 M 401.4,392.4 C 401.1,393.2 401.0,395.3 401.2,397.2 L 401.5,400.5 L 407.7,400.8 L 414.0,401.1 L 414.2,419.8 L 414.5,438.5 L 419.0,438.5 L 423.5,438.5 L 423.8,419.8 L 424.0,401.1 L 430.3,400.8 L 436.5,400.5 L 436.5,396.0 L 436.5,391.5 L 419.2,391.2 C 405.0,391.0 401.9,391.2 401.4,392.4" fill="#808080"/>
</svg>
